<?xml version="1.0" encoding="utf-8"?>

<!-- License Agreement at http://iconmonstr.com/license/ -->

<!DOCTYPE svg PUBLIC "-//W3C//DTD SVG 1.1//EN" "http://www.w3.org/Graphics/SVG/1.1/DTD/svg11.dtd">
<svg version="1.1" xmlns="http://www.w3.org/2000/svg" xmlns:xlink="http://www.w3.org/1999/xlink" x="0px" y="0px"
	 width="512px" height="512px" viewBox="0 0 512 512" enable-background="new 0 0 512 512" xml:space="preserve">
<path id="smiley-geek-icon" d="M256,50C142.229,50,50,142.229,50,256c0,113.771,92.229,206,206,206c113.771,0,206-92.229,206-206
	C462,142.229,369.771,50,256,50z M256,90c66.527,0,123.852,39.048,150.342,95.499h-26.117
	c-8.918-20.559-29.388-34.943-53.225-34.943c-23.858,0-44.343,14.412-53.248,35h-33.004c-8.906-20.588-29.389-35-53.248-35
	c-23.837,0-44.307,14.385-53.225,34.943h-28.616C132.146,129.054,189.465,90,256,90z M355,208.556c0,15.439-12.561,28-28,28
	s-28-12.561-28-28s12.561-28,28-28S355,193.116,355,208.556z M215.5,208.556c0,15.439-12.561,28-28,28s-28-12.561-28-28
	s12.561-28,28-28S215.5,193.116,215.5,208.556z M256,422c-91.74,0-166-74.243-166-166c0-13.257,1.56-26.146,4.488-38.501h35.699
	c4.302,27.785,28.322,49.057,57.312,49.057c25.289,0,46.795-16.187,54.729-38.764c2.224-6.326,8.203-10.569,14.909-10.569
	c6.823,0,12.907,4.299,15.188,10.729c7.979,22.494,29.444,38.604,54.673,38.604c28.99,0,53.011-21.271,57.312-49.057h33.2
	C420.44,229.854,422,242.742,422,256C422,347.742,347.757,422,256,422z M356.334,284.334l8.791,8.791
	C345,323.834,308,356.805,258,356.805s-87-32.971-107.125-63.68l8.791-8.791c27.001,21.333,56.667,34.471,98.334,34.471
	S329.333,305.667,356.334,284.334z"/>
</svg>
